<svg width="147" height="66" viewBox="0 0 147 66" fill="none" xmlns="http://www.w3.org/2000/svg">
<path d="M5.25883 52.2028L12.1367 12.9967H39.8912L38.5412 20.6924H20.4074L18.9969 28.7327H35.7119L34.3585 36.4476H17.6435L16.2297 44.5071H34.3634L33.0134 52.2028H5.25883ZM47.367 52.7006C45.4623 52.7006 43.8262 52.3879 42.4588 51.7625C41.1066 51.1244 40.1148 50.1672 39.4835 48.891C38.8674 47.602 38.7295 45.9875 39.0698 44.0476C39.3564 42.414 39.8897 41.0357 40.6698 39.9126C41.4499 38.7895 42.4134 37.877 43.5601 37.1751C44.7069 36.4731 45.9789 35.9435 47.3762 35.5861C48.7757 35.216 50.2447 34.9672 51.7831 34.8395C53.5074 34.6864 54.9024 34.5269 55.9681 34.361C57.036 34.1823 57.8312 33.9334 58.3536 33.6144C58.8912 33.2825 59.2127 32.8167 59.3179 32.2169L59.3347 32.1211C59.5071 31.1384 59.2969 30.3791 58.7042 29.8431C58.1115 29.307 57.2321 29.039 56.0659 29.039C54.8091 29.039 53.7514 29.307 52.8929 29.8431C52.0343 30.3791 51.4186 31.1193 51.0456 32.0637L42.3337 31.7574C42.9063 29.9707 43.8534 28.3754 45.1752 26.9715C46.5121 25.5549 48.197 24.4445 50.2298 23.6405C52.2778 22.8237 54.6364 22.4153 57.3056 22.4153C59.2104 22.4153 60.9269 22.6387 62.4552 23.0853C63.9858 23.5193 65.2733 24.1574 66.3176 24.9997C67.3641 25.8293 68.105 26.8503 68.5402 28.0627C68.9883 29.2751 69.0758 30.6599 68.8026 32.2169L65.2966 52.2028H56.356L57.0747 48.1061H56.8415C56.1356 49.1016 55.3076 49.9439 54.3574 50.633C53.4202 51.3222 52.3642 51.8391 51.1894 52.1837C50.0276 52.5283 48.7535 52.7006 47.367 52.7006ZM51.3765 46.5746C52.4001 46.5746 53.3559 46.3704 54.2439 45.962C55.1448 45.5536 55.9041 44.9921 56.5219 44.2774C57.1419 43.5499 57.5358 42.7076 57.7038 41.7504L58.1941 38.9554C57.8973 39.0958 57.5445 39.2234 57.1357 39.3383C56.7398 39.4532 56.3061 39.5616 55.8347 39.6637C55.3633 39.7658 54.8811 39.8552 54.3883 39.9318C53.8954 40.0083 53.4231 40.0785 52.9714 40.1423C52.0527 40.2827 51.2501 40.4997 50.5637 40.7932C49.8903 41.0868 49.3437 41.4696 48.924 41.9418C48.5194 42.4013 48.2612 42.9501 48.1493 43.5882C47.9791 44.5581 48.1991 45.2984 48.8092 45.8089C49.4323 46.3193 50.2881 46.5746 51.3765 46.5746ZM71.1857 52.2028L72.1226 46.8618L88.8727 30.2642L88.9063 30.0728H75.5538L76.8299 22.7982H101.514L100.486 28.6562L84.8373 44.7368L84.8037 44.9282H98.0979L96.8217 52.2028H71.1857ZM102.963 52.2028L108.122 22.7982H117.626L112.468 52.2028H102.963ZM113.485 19.3715C112.15 19.3715 111.08 18.9376 110.273 18.0697C109.469 17.1891 109.175 16.1298 109.392 14.8919C109.607 13.6667 110.27 12.6202 111.381 11.7523C112.495 10.8717 113.719 10.4314 115.053 10.4314C116.401 10.4314 117.47 10.8717 118.262 11.7523C119.068 12.6202 119.364 13.6667 119.149 14.8919C118.932 16.1298 118.267 17.1891 117.153 18.0697C116.055 18.9376 114.832 19.3715 113.485 19.3715ZM140.526 22.7982L139.317 29.6899H120.484L121.693 22.7982H140.526ZM126.874 15.7533H136.379L131.606 42.9564C131.506 43.5308 131.515 43.9966 131.633 44.3539C131.767 44.6985 132.002 44.9474 132.338 45.1005C132.676 45.2409 133.098 45.3111 133.603 45.3111C133.966 45.3111 134.354 45.2792 134.767 45.2154C135.195 45.1388 135.517 45.075 135.733 45.024L135.986 51.7817C135.51 51.9093 134.841 52.0688 133.978 52.2603C133.128 52.4517 132.129 52.5729 130.979 52.624C128.733 52.7261 126.866 52.4708 125.38 51.8582C123.909 51.2329 122.868 50.2629 122.256 48.9484C121.657 47.6339 121.546 45.9811 121.921 43.9902L126.874 15.7533Z" fill="white"/>
<circle cx="114.404" cy="12" r="8" fill="#04EDDF"/>
</svg>
